<svg xmlns="http://www.w3.org/2000/svg" viewBox="0 0 64 64">
  <!-- Bitcoin-style coin -->
  <defs>
    <linearGradient id="bitcoinGradient" x1="0%" y1="0%" x2="100%" y2="100%">
      <stop offset="0%" style="stop-color:#f59e0b;stop-opacity:1" />
      <stop offset="100%" style="stop-color:#d97706;stop-opacity:1" />
    </linearGradient>
  </defs>
  
  <!-- Outer circle -->
  <circle cx="32" cy="32" r="30" fill="url(#bitcoinGradient)"/>
  
  <!-- Inner circle -->
  <circle cx="32" cy="32" r="24" fill="none" stroke="#fef3c7" stroke-width="2"/>
  
  <!-- Bitcoin B symbol -->
  <path d="M 26 20 L 26 44 M 30 20 L 30 44 M 26 20 L 36 20 C 38 20 40 22 40 24 C 40 26 38 28 36 28 L 26 28 M 26 28 L 38 28 C 40 28 42 30 42 32 C 42 34 40 36 38 36 L 26 36 M 26 36 L 26 44 L 38 44 C 40 44 42 42 42 40 C 42 38 40 36 38 36" 
        fill="none" stroke="#fef3c7" stroke-width="3" stroke-linecap="round" stroke-linejoin="round"/>
  
  <!-- Simplified B -->
  <text x="32" y="42" font-family="Arial, sans-serif" font-size="28" font-weight="bold" fill="#fef3c7" text-anchor="middle">₿</text>
  
  <!-- Shine -->
  <circle cx="22" cy="22" r="5" fill="#fef3c7" opacity="0.3"/>
</svg>
